<?xml version="1.0" standalone="no"?>
<!DOCTYPE svg PUBLIC "-//W3C//DTD SVG 20010904//EN"
 "http://www.w3.org/TR/2001/REC-SVG-20010904/DTD/svg10.dtd">
<svg version="1.0" xmlns="http://www.w3.org/2000/svg"
 width="512.000000pt" height="512.000000pt" viewBox="0 0 512.000000 512.000000"
 preserveAspectRatio="xMidYMid meet">

<g transform="translate(0.000000,512.000000) scale(0.100000,-0.100000)"
fill="#000000" stroke="none">
<path d="M2440 4759 c-599 -45 -1093 -422 -1275 -972 -117 -356 -74 -770 114
-1086 21 -36 172 -259 335 -494 163 -236 296 -433 296 -438 0 -5 -19 -9 -42
-9 -59 0 -376 -37 -528 -61 -475 -76 -828 -191 -1017 -333 -115 -86 -167 -177
-166 -286 1 -222 263 -402 769 -529 1166 -292 3083 -197 3762 187 98 55 199
148 232 212 31 60 38 161 16 226 -56 169 -307 321 -706 428 -235 63 -602 124
-890 147 -80 7 -146 13 -148 14 -1 1 137 204 308 451 333 480 405 603 454 776
216 754 -234 1518 -1015 1722 -159 42 -335 58 -499 45z m235 -239 c163 -18
297 -56 437 -125 577 -284 817 -947 546 -1504 -25 -51 -249 -384 -571 -850
-291 -421 -530 -767 -531 -768 -1 -2 -238 338 -527 755 -562 811 -607 885
-656 1067 -25 91 -27 115 -27 280 1 199 11 255 77 420 112 279 360 521 656
638 198 79 400 109 596 87z m-415 -3246 c216 -315 223 -324 276 -331 73 -9 86
4 295 307 l193 280 57 0 c131 0 562 -50 784 -91 318 -59 596 -148 730 -234 69
-44 115 -94 115 -124 0 -40 -77 -105 -192 -160 -758 -366 -2754 -407 -3742
-76 -192 64 -353 158 -376 220 -31 81 184 208 500 295 308 86 832 165 1110
168 l75 1 175 -255z"/>
<path d="M2430 4075 c-120 -23 -230 -83 -326 -179 -88 -89 -122 -143 -162
-256 -22 -65 -26 -91 -26 -195 0 -105 3 -130 28 -200 36 -105 81 -176 155
-250 126 -124 292 -195 459 -195 76 0 195 30 281 72 68 32 101 57 166 122 130
131 187 264 188 441 1 189 -56 330 -188 461 -121 121 -251 179 -423 189 -44 3
-109 -2 -152 -10z m202 -236 c120 -25 235 -116 284 -224 112 -244 -36 -521
-302 -566 -59 -10 -80 -10 -145 5 -309 69 -423 447 -202 670 61 61 114 92 188
110 75 18 110 19 177 5z"/>
</g>
</svg>
